<svg version="1.1" viewBox="0.0 0.0 178.20734908136484 100.0" fill="none" stroke="none" stroke-linecap="square" stroke-miterlimit="10" xmlns:xlink="http://www.w3.org/1999/xlink" xmlns="http://www.w3.org/2000/svg"><clipPath id="p.0"><path d="m0 0l178.20735 0l0 100.0l-178.20735 0l0 -100.0z" clip-rule="nonzero"/></clipPath><g clip-path="url(#p.0)"><path fill="#000000" fill-opacity="0.0" d="m0 0l178.20735 0l0 100.0l-178.20735 0z" fill-rule="evenodd"/><path fill="#000000" fill-opacity="0.0" d="m0 0l178.20473 0l0 100.0l-178.20473 0z" fill-rule="evenodd"/><path fill="#1155cc" d="m23.768051 21.073124l0 4.234375l-3.625 0l0 8.078125q0 2.453125 0.09375 2.859375q0.109375 0.40625 0.46875 0.671875q0.375 0.265625 0.90625 0.265625q0.734375 0 2.140625 -0.515625l0.453125 4.109375q-1.859375 0.796875 -4.203125 0.796875q-1.421875 0 -2.578125 -0.484375q-1.15625 -0.484375 -1.703125 -1.234375q-0.53125 -0.765625 -0.734375 -2.078125q-0.171875 -0.921875 -0.171875 -3.734375l0 -8.734375l-2.4375 0l0 -4.234375l2.4375 0l0 -3.984375l5.328125 -3.09375l0 7.078125l3.625 0zm16.872833 20.046875l0 -3.0q-1.09375 1.609375 -2.875 2.53125q-1.78125 0.921875 -3.765625 0.921875q-2.03125 0 -3.640625 -0.890625q-1.59375 -0.890625 -2.3125 -2.484375q-0.71875 -1.609375 -0.71875 -4.4375l0 -12.6875l5.3125 0l0 9.21875q0 4.21875 0.28125 5.171875q0.296875 0.953125 1.0625 1.515625q0.78125 0.546875 1.96875 0.546875q1.359375 0 2.4375 -0.734375q1.078125 -0.75 1.46875 -1.84375q0.40625 -1.109375 0.40625 -5.421875l0 -8.453125l5.296875 0l0 20.046875l-4.921875 0zm19.612778 -20.046875l0 4.234375l-3.625 0l0 8.078125q0 2.453125 0.09375 2.859375q0.109375 0.40625 0.46875 0.671875q0.375 0.265625 0.90625 0.265625q0.734375 0 2.140625 -0.515625l0.453125 4.109375q-1.859375 0.796875 -4.203125 0.796875q-1.421875 0 -2.578125 -0.484375q-1.15625 -0.484375 -1.703125 -1.234375q-0.53125 -0.765625 -0.734375 -2.078125q-0.171875 -0.921875 -0.171875 -3.734375l0 -8.734375l-2.4375 0l0 -4.234375l2.4375 0l0 -3.984375l5.328125 -3.09375l0 7.078125l3.625 0zm2.4509583 9.734375q0 -2.640625 1.296875 -5.109375q1.3125 -2.46875 3.6875 -3.765625q2.390625 -1.3125 5.34375 -1.3125q4.546875 0 7.453125 2.953125q2.90625 2.953125 2.90625 7.46875q0 4.546875 -2.9375 7.546875q-2.9375 2.984375 -7.390625 2.984375q-2.75 0 -5.25 -1.234375q-2.5 -1.25 -3.8125 -3.65625q-1.296875 -2.421875 -1.296875 -5.875zm5.4375 0.296875q0 2.96875 1.40625 4.5625q1.421875 1.578125 3.5 1.578125q2.078125 0 3.484375 -1.578125q1.40625 -1.59375 1.40625 -4.609375q0 -2.9375 -1.40625 -4.515625q-1.40625 -1.59375 -3.484375 -1.59375q-2.078125 0 -3.5 1.59375q-1.40625 1.578125 -1.40625 4.5625zm24.487778 10.015625l-5.3125 0l0 -20.046875l4.921875 0l0 2.859375q1.265625 -2.03125 2.28125 -2.671875q1.015625 -0.640625 2.296875 -0.640625q1.8125 0 3.484375 1.0l-1.640625 4.625q-1.34375 -0.859375 -2.484375 -0.859375q-1.125 0 -1.90625 0.609375q-0.765625 0.609375 -1.203125 2.21875q-0.4375 1.59375 -0.4375 6.71875l0 6.1875zm9.965347 0l0 -27.671875l5.296875 0l0 27.671875l-5.296875 0zm10.739944 0l0 -5.296875l5.296875 0l0 5.296875l-5.296875 0zm22.34932 -6.375l5.28125 0.875q-1.015625 2.921875 -3.21875 4.4375q-2.203125 1.515625 -5.5 1.515625q-5.234375 0 -7.75 -3.421875q-1.96875 -2.734375 -1.96875 -6.90625q0 -4.984375 2.59375 -7.796875q2.609375 -2.828125 6.59375 -2.828125q4.46875 0 7.046875 2.953125q2.59375 2.953125 2.484375 9.046875l-13.296875 0q0.0625 2.359375 1.28125 3.671875q1.234375 1.3125 3.0625 1.3125q1.25 0 2.09375 -0.671875q0.859375 -0.6875 1.296875 -2.1875zm0.296875 -5.359375q-0.0625 -2.3125 -1.203125 -3.5q-1.125 -1.203125 -2.75 -1.203125q-1.734375 0 -2.859375 1.265625q-1.140625 1.265625 -1.125 3.4375l7.9375 0zm22.780014 11.734375l0 -3.0q-1.09375 1.609375 -2.875 2.53125q-1.78125 0.921875 -3.765625 0.921875q-2.03125 0 -3.640625 -0.890625q-1.59375 -0.890625 -2.3125 -2.484375q-0.71875 -1.609375 -0.71875 -4.4375l0 -12.6875l5.3125 0l0 9.21875q0 4.21875 0.28125 5.171875q0.296875 0.953125 1.0625 1.515625q0.78125 0.546875 1.96875 0.546875q1.359375 0 2.4375 -0.734375q1.078125 -0.75 1.46875 -1.84375q0.40625 -1.109375 0.40625 -5.421875l0 -8.453125l5.296875 0l0 20.046875l-4.921875 0z" fill-rule="nonzero"/><path fill="#1155cc" d="m29.605148 87.119995l0 -27.671875l5.296875 0l0 27.671875l-5.296875 0zm22.34932 -6.375l5.28125 0.875q-1.015625 2.921875 -3.21875 4.4375q-2.203125 1.515625 -5.5 1.515625q-5.234375 0 -7.75 -3.421875q-1.96875 -2.734375 -1.96875 -6.90625q0 -4.984375 2.59375 -7.796875q2.609375 -2.828125 6.59375 -2.828125q4.46875 0 7.046875 2.953125q2.59375 2.953125 2.484375 9.046875l-13.296875 0q0.0625 2.359375 1.28125 3.671875q1.234375 1.3125 3.0625 1.3125q1.25 0 2.09375 -0.671875q0.859375 -0.6875 1.296875 -2.1875zm0.296875 -5.359375q-0.0625 -2.3125 -1.203125 -3.5q-1.125 -1.203125 -2.75 -1.203125q-1.734375 0 -2.859375 1.265625q-1.140625 1.265625 -1.125 3.4375l7.9375 0zm20.098083 11.734375l0 -27.671875l5.3125 0l0 9.96875q2.453125 -2.796875 5.8125 -2.796875q3.65625 0 6.046875 2.65625q2.40625 2.65625 2.40625 7.609375q0 5.140625 -2.453125 7.921875q-2.4375 2.765625 -5.9375 2.765625q-1.703125 0 -3.375 -0.859375q-1.671875 -0.859375 -2.890625 -2.53125l0 2.9375l-4.921875 0zm5.265625 -10.453125q0 3.109375 0.984375 4.609375q1.375 2.109375 3.65625 2.109375q1.765625 0 3.0 -1.5q1.234375 -1.5 1.234375 -4.734375q0 -3.4375 -1.25 -4.953125q-1.25 -1.515625 -3.1875 -1.515625q-1.90625 0 -3.171875 1.484375q-1.265625 1.46875 -1.265625 4.5zm18.581528 10.453125l0 -27.671875l5.296875 0l0 27.671875l-5.296875 0zm9.505569 -10.3125q0 -2.640625 1.296875 -5.109375q1.3125 -2.46875 3.6875 -3.765625q2.390625 -1.3125 5.34375 -1.3125q4.546875 0 7.453125 2.953125q2.90625 2.953125 2.90625 7.46875q0 4.546875 -2.9375 7.546875q-2.9375 2.984375 -7.390625 2.984375q-2.75 0 -5.25 -1.234375q-2.5 -1.25 -3.8125 -3.65625q-1.296875 -2.421875 -1.296875 -5.875zm5.4375 0.296875q0 2.96875 1.40625 4.5625q1.421875 1.578125 3.5 1.578125q2.078125 0 3.484375 -1.578125q1.40625 -1.59375 1.40625 -4.609375q0 -2.9375 -1.40625 -4.515625q-1.40625 -1.59375 -3.484375 -1.59375q-2.078125 0 -3.5 1.59375q-1.40625 1.578125 -1.40625 4.5625zm18.909653 11.34375l6.0625 0.734375q0.15625 1.046875 0.703125 1.453125q0.75 0.5625 2.375 0.5625q2.078125 0 3.109375 -0.625q0.703125 -0.421875 1.0625 -1.34375q0.25 -0.65625 0.25 -2.4375l0 -2.921875q-2.390625 3.25 -6.015625 3.25q-4.03125 0 -6.390625 -3.421875q-1.859375 -2.6875 -1.859375 -6.71875q0 -5.03125 2.421875 -7.6875q2.4375 -2.671875 6.046875 -2.671875q3.71875 0 6.125 3.265625l0 -2.8125l4.96875 0l0 17.984375q0 3.546875 -0.59375 5.296875q-0.578125 1.765625 -1.640625 2.765625q-1.046875 1.0 -2.8125 1.5625q-1.765625 0.578125 -4.46875 0.578125q-5.09375 0 -7.234375 -1.75q-2.125 -1.75 -2.125 -4.421875q0 -0.265625 0.015625 -0.640625zm4.734375 -11.765625q0 3.1875 1.234375 4.671875q1.25 1.484375 3.0625 1.484375q1.9375 0 3.28125 -1.515625q1.34375 -1.53125 1.34375 -4.515625q0 -3.109375 -1.296875 -4.609375q-1.28125 -1.515625 -3.234375 -1.515625q-1.90625 0 -3.15625 1.484375q-1.234375 1.46875 -1.234375 4.515625z" fill-rule="nonzero"/></g></svg>